<svg width="20" height="20" viewBox="0 0 20 20" fill="none" xmlns="http://www.w3.org/2000/svg">
<path d="M9.38802 4.28997C8.98884 3.88296 8.51274 3.55934 7.9874 3.33794C7.46206 3.11653 6.89795 3.00175 6.32786 3.00026C5.75777 2.99877 5.19307 3.11061 4.66658 3.32927C4.14009 3.54793 3.66232 3.86905 3.26102 4.27397C1.57302 5.97897 1.58102 8.74997 3.27702 10.463L9.55402 16.803C9.81402 17.066 10.236 17.066 10.496 16.803L16.741 10.499C17.5512 9.67206 18.0035 8.55963 18.0003 7.40199C17.9972 6.24435 17.5387 5.13442 16.724 4.31197C16.3244 3.90418 15.8477 3.57994 15.3216 3.35813C14.7955 3.13632 14.2306 3.02137 13.6597 3.01997C13.0887 3.01858 12.5232 3.13076 11.996 3.35C11.4689 3.56923 10.9906 3.89113 10.589 4.29697L9.99302 4.89997L9.38802 4.28997Z" fill="#00BCD4"/>
</svg>
